<svg width="65" height="65" viewBox="0 0 65 65" fill="none" xmlns="http://www.w3.org/2000/svg">
<path d="M30.8161 46.5643H34.8161V38.5106H43.4827V34.7647H34.8161V26.6485H30.8161V34.7647H22.1494V38.5106H30.8161V46.5643ZM15.4827 56.1788C14.4161 56.1788 13.4827 55.8042 12.6827 55.0551C11.8827 54.3059 11.4827 53.4318 11.4827 52.4329V9.97919C11.4827 8.98028 11.8827 8.10623 12.6827 7.35705C13.4827 6.60787 14.4161 6.23328 15.4827 6.23328H39.5494L54.1494 19.9059V52.4329C54.1494 53.4318 53.7494 54.3059 52.9494 55.0551C52.1494 55.8042 51.2161 56.1788 50.1494 56.1788H15.4827ZM37.5494 21.5915V9.97919H15.4827V52.4329H50.1494V21.5915H37.5494Z" fill="#F5F5F5"/>
</svg>
