<svg width="126" height="93" viewBox="0 0 126 93" fill="none" xmlns="http://www.w3.org/2000/svg">
<path d="M96.2018 1.04002C89.3007 3.42953 82.5418 7.38931 77.4193 12.1001C74.7158 14.4896 72.368 16.2647 72.1545 15.9916C71.5854 15.4454 54.0835 15.5819 53.1586 16.1281C52.7318 16.4012 50.5262 14.8992 48.2496 12.9193C41.135 6.57005 32.1707 1.5862 25.483 0.3573C23.4909 -0.05233 23.3486 0.0842133 22.7794 2.542C21.8545 6.91141 22.2814 19.7465 23.6332 27.2564L24.8427 34.3567L22.8506 38.5213C21.7122 40.8426 20.5028 44.7341 20.0047 47.1919C19.5067 50.1958 18.9376 51.5613 18.2973 51.4247C17.7992 51.2882 13.7439 49.8545 9.26175 48.1477C4.85072 46.5091 1.00885 45.1437 0.866557 45.1437C0.65312 45.1437 0.510829 45.5533 0.510829 46.0312C0.510829 46.714 7.19852 49.5814 17.7992 53.2681C19.151 53.8142 19.7202 54.4287 19.7202 55.6576V57.3644L9.97321 57.5692C3.14322 57.7057 0.1551 58.0471 0.012809 58.5933C-0.200628 59.2077 2.21833 59.4808 9.90206 59.6174C19.7202 59.8222 20.0759 59.8904 20.2893 61.3242C20.5028 62.6213 19.7202 63.031 12.1076 65.2839C7.48311 66.6494 3.14322 67.9465 2.50291 68.0831C0.866557 68.561 0.866557 69.7216 2.50291 69.7216C3.14322 69.7216 7.26967 68.6293 11.5384 67.3321C15.8783 66.0349 19.8625 64.9426 20.4316 64.9426C21.0719 64.9426 22.6371 67.2638 24.2023 70.5409C27.6885 77.5729 34.8031 84.6049 42.1311 88.2916C54.3681 94.3678 72.1545 94.2995 83.4667 88.0868C91.2927 83.7856 98.9765 75.3882 101.965 67.8783C102.605 66.2397 103.601 64.9426 104.099 64.9426C104.597 64.9426 108.439 65.9666 112.708 67.2638C124.02 70.7457 123.593 70.6091 123.593 69.4485C123.593 68.9023 122.881 68.2196 122.028 68.0148C121.103 67.7417 116.763 66.4446 112.423 65.1474C105.166 62.8944 104.384 62.4848 104.384 61.0511V59.4808H114.7C123.379 59.4808 125.016 59.3443 125.016 58.4567C125.016 57.5692 123.451 57.4327 115.055 57.4327H105.095V55.7941C105.095 54.2921 106.091 53.8142 114.7 50.5372C120.889 48.2159 124.304 46.5774 124.304 45.963C124.304 44.8023 124.091 44.8023 114.344 48.489C110.217 50.0593 106.589 51.4247 106.233 51.493C105.949 51.5613 105.095 49.1717 104.455 46.1678C103.743 43.1638 102.534 39.2723 101.609 37.5655C100.186 34.6981 100.115 33.9471 100.755 30.397C102.818 19.4734 103.032 1.85928 101.111 0.0842133C100.755 -0.188873 98.5496 0.220757 96.2018 1.04002Z" fill="#0F416F" fill-opacity="0.94"/>
</svg>
